<svg width="400" height="300" xmlns="http://www.w3.org/2000/svg">
  <style>
    .katakana { font: bold 18px sans-serif; fill: #b22222; }
    .label { font: 14px sans-serif; fill: #333; }
    .title { font: bold 18px sans-serif; fill: #000; }
    .tech { font: 12px sans-serif; fill: #666; }
  </style>
  
  <!-- 背景 -->
  <rect width="100%" height="100%" fill="#f0f8ff"/>
  
  <!-- 标题 -->
  <text x="200" y="25" class="title" text-anchor="middle">第8章：未来发展与学习建议</text>
  
  <!-- 未来科技元素 -->
  <circle cx="80" cy="80" r="25" fill="#4169e1"/>
  <text x="80" y="85" class="katakana" text-anchor="middle">AI</text>
  
  <circle cx="150" cy="80" r="25" fill="#32cd32"/>
  <text x="150" y="85" class="katakana" text-anchor="middle">VR</text>
  
  <circle cx="220" cy="80" r="25" fill="#ff6347"/>
  <text x="220" y="85" class="katakana" text-anchor="middle">IoT</text>
  
  <circle cx="290" cy="80" r="25" fill="#da70d6"/>
  <text x="290" y="85" class="katakana" text-anchor="middle">5G</text>
  
  <!-- 学习路径 -->
  <rect x="50" y="120" width="300" height="40" rx="5" fill="#fff" stroke="#ccc"/>
  <text x="200" y="145" class="label" text-anchor="middle">基础学习 → 进阶学习 → 实践应用</text>
  
  <!-- 学习方法图标 -->
  <rect x="70" y="180" width="50" height="50" fill="#ffd700"/>
  <text x="95" y="210" class="tech" text-anchor="middle">书籍</text>
  
  <rect x="140" y="180" width="50" height="50" fill="#ff6347"/>
  <text x="165" y="210" class="tech" text-anchor="middle">网络</text>
  
  <rect x="210" y="180" width="50" height="50" fill="#32cd32"/>
  <text x="235" y="210" class="tech" text-anchor="middle">应用</text>
  
  <rect x="280" y="180" width="50" height="50" fill="#4169e1"/>
  <text x="305" y="210" class="tech" text-anchor="middle">交流</text>
  
  <!-- 向前箭头 -->
  <polygon points="190,250 210,240 210,260" fill="#666"/>
  <text x="200" y="275" class="label" text-anchor="middle">未来发展</text>
  
  <!-- 说明文字 -->
  <text x="200" y="290" class="label" text-anchor="middle">片假字在科技与教育中的应用前景</text>
  
  <!-- 装饰元素 -->
  <circle cx="370" cy="30" r="10" fill="#ff6347"/>
  <circle cx="20" cy="270" r="8" fill="#32cd32"/>
</svg>